<?xml version="1.0" encoding="iso-8859-1"?>
<!-- Generator: Adobe Illustrator 19.0.0, SVG Export Plug-In . SVG Version: 6.00 Build 0)  -->
<svg version="1.1" id="Layer_1" xmlns="http://www.w3.org/2000/svg" xmlns:xlink="http://www.w3.org/1999/xlink" x="0px" y="0px"
	 viewBox="0 0 496.6 496.6" style="enable-background:new 0 0 496.6 496.6;" xml:space="preserve">

<g fill="darkgrey">
<g>
	<g>
		<path d="M264.655,38.7c0-9.6-8-16-16-16c-9.6,0-16,6.4-16,16l1.6,240l-1.6,179.2c0,8,6.4,16,16,16c8,0,16-6.4,16-16l1.6-179.2
			L264.655,38.7z"/>
	</g>
</g>
<g>
	<g>
		<path d="M488.655,398.7l-230.4-134.4c-8-3.2-17.6-1.6-22.4,6.4c-3.2,8-1.6,17.6,6.4,22.4l230.4,132.8c3.2,1.6,4.8,1.6,8,1.6
			c4.8,0,11.2-1.6,14.4-6.4C498.255,413.1,496.655,403.5,488.655,398.7z"/>
	</g>
</g>
<g>
	<g>
		<path d="M418.255,360.3c-4.8-8-14.4-11.2-22.4-6.4l-147.2,84.8l-147.2-84.8c-8-3.2-19.2-1.6-22.4,6.4c-3.2,8-1.6,17.6,6.4,22.4
			l155.2,89.6c3.2,1.6,4.8,1.6,8,1.6s4.8,0,8-1.6l155.2-89.6C419.855,377.9,423.055,368.3,418.255,360.3z"/>
	</g>
</g>
<g>
	<g>
		<path d="M363.855,211.5c-4.8-8-14.4-11.2-22.4-6.4l-92.8,54.4l-147.2-84.8c-8-3.2-19.2-1.6-22.4,6.4c-3.2,8-1.6,17.6,6.4,22.4
			l155.2,89.6c3.2,1.6,4.8,1.6,8,1.6s4.8,0,8-1.6l100.8-59.2C365.455,229.1,368.655,219.5,363.855,211.5z"/>
	</g>
</g>
<g>
	<g>
		<path d="M263.055,270.7c-4.8-8-14.4-11.2-22.4-6.4l-232,132.8c-8,4.8-11.2,14.4-6.4,22.4c3.2,4.8,9.6,8,14.4,8c3.2,0,4.8,0,8-1.6
			l232-132.8C264.655,288.3,267.855,278.7,263.055,270.7z"/>
	</g>
</g>
<g>
	<g>
		<path d="M263.055,91.5c-4.8-8-14.4-11.2-22.4-6.4l-155.2,89.6c-8,4.8-11.2,14.4-6.4,22.4c3.2,4.8,9.6,8,14.4,8c3.2,0,4.8,0,8-1.6
			l155.2-89.6C264.655,109.1,267.855,99.5,263.055,91.5z"/>
	</g>
</g>
<g>
	<g>
		<path d="M411.855,174.7l-155.2-89.6c-8-3.2-17.6-1.6-22.4,6.4c-3.2,8-1.6,17.6,6.4,22.4l155.2,89.6c3.2,1.6,4.8,1.6,8,1.6
			c4.8,0,9.6-3.2,14.4-8C421.455,189.1,419.855,179.5,411.855,174.7z"/>
	</g>
</g>
<g>
	<g>
		<path d="M93.455,173.1c-9.6,0-16,6.4-16,16v54.4v124.8c0,8,6.4,16,16,16c8,0,16-6.4,16-16V243.5v-54.4
			C109.455,179.5,101.455,173.1,93.455,173.1z"/>
	</g>
</g>
<g>
	<g>
		<path d="M403.855,173.1c-9.6,0-16,6.4-16,16v108.8v70.4c0,9.6,8,16,16,16s16-8,16-17.6v-68.8V189.1
			C419.855,181.1,413.455,173.1,403.855,173.1z"/>
	</g>
</g>
<g>
</g>
<g>
</g>
<g>
</g>
<g>
</g>
<g>
</g>
<g>
</g>
<g>
</g>
<g>
</g>
<g>
</g>
<g>
</g>
<g>
</g>
<g>
</g>
<g>
</g>
<g>
</g>
<g>
</g>
</g>

</svg>
